<svg width="346" height="272" viewBox="0 0 346 272" fill="none" xmlns="http://www.w3.org/2000/svg">
<path d="M125.323 100.164C128.283 100.164 130.682 96.9417 130.682 92.9665C130.682 88.9913 128.283 85.7687 125.323 85.7687C122.363 85.7687 119.964 88.9913 119.964 92.9665C119.964 96.9417 122.363 100.164 125.323 100.164Z" fill="url(#paint0_linear_22_366)"/>
<path d="M135.47 107.601V107.566H116.271V107.589C115.605 107.59 114.966 107.943 114.493 108.574C114.021 109.204 113.753 110.06 113.748 110.954H113.746V131.349H113.771C113.771 131.747 113.83 132.14 113.943 132.507C114.056 132.874 114.222 133.208 114.431 133.489C114.64 133.77 114.889 133.992 115.162 134.145C115.435 134.297 115.728 134.375 116.024 134.375C116.32 134.375 116.613 134.297 116.886 134.145C117.159 133.992 117.408 133.77 117.617 133.489C117.826 133.208 117.992 132.874 118.105 132.507C118.218 132.14 118.277 131.747 118.277 131.349H118.282V117.112H118.288C118.294 116.864 118.372 116.629 118.505 116.456C118.638 116.284 118.816 116.187 119.001 116.186C119.388 116.186 119.699 116.598 119.715 117.112H119.721V154.445C119.722 155.384 120 156.284 120.494 156.948C120.989 157.611 121.659 157.984 122.358 157.983C123.057 157.982 123.727 157.609 124.221 156.945C124.715 156.28 124.993 155.38 124.992 154.441V135.643H125.012C125.009 135.511 125.025 135.381 125.061 135.258C125.096 135.136 125.149 135.025 125.217 134.93C125.286 134.836 125.367 134.761 125.457 134.71C125.547 134.659 125.644 134.633 125.741 134.633C125.839 134.633 125.936 134.659 126.026 134.71C126.116 134.761 126.197 134.836 126.265 134.93C126.333 135.025 126.387 135.136 126.422 135.258C126.457 135.381 126.474 135.511 126.471 135.643H126.49V154.441C126.509 155.363 126.794 156.239 127.287 156.883C127.779 157.526 128.439 157.886 129.126 157.886C129.813 157.886 130.472 157.526 130.965 156.883C131.457 156.239 131.743 155.363 131.761 154.441V117.112C131.761 116.856 131.837 116.61 131.972 116.429C132.107 116.247 132.29 116.145 132.481 116.145C132.672 116.145 132.855 116.247 132.99 116.429C133.125 116.61 133.201 116.856 133.201 117.112V131.35H133.226C133.226 132.153 133.463 132.923 133.886 133.49C134.308 134.058 134.881 134.377 135.479 134.377C136.076 134.377 136.649 134.058 137.072 133.49C137.495 132.923 137.732 132.153 137.732 131.35H137.737V110.955C137.738 109.202 136.742 107.776 135.47 107.601Z" fill="url(#paint1_linear_22_366)"/>
<path d="M162.629 100.247C165.606 100.247 168.019 97.0057 168.019 93.0074C168.019 89.0091 165.606 85.7679 162.629 85.7679C159.652 85.7679 157.239 89.0091 157.239 93.0074C157.239 97.0057 159.652 100.247 162.629 100.247Z" fill="url(#paint2_linear_22_366)"/>
<path d="M177.683 128.461L174.087 110.438L174.079 110.397L174.015 110.079L174.006 110.082C173.678 108.708 172.731 107.708 171.599 107.708L171.574 107.711V107.649H154.652V107.708C153.52 107.708 152.573 108.709 152.245 110.082L152.236 110.079L152.173 110.396L152.164 110.439L148.569 128.461L148.602 128.473C148.586 128.622 148.569 128.77 148.569 128.925C148.569 129.741 148.81 130.524 149.24 131.101C149.669 131.678 150.252 132.002 150.859 132.002C151.319 132.001 151.768 131.815 152.147 131.466C152.526 131.118 152.819 130.624 152.986 130.049L153.002 130.056L155.64 116.836V116.885H155.661C155.732 116.45 156.008 116.118 156.354 116.118C156.7 116.118 156.975 116.45 157.047 116.885H157.068V117.028C157.07 117.05 157.078 117.069 157.078 117.09C157.078 117.112 157.07 117.131 157.068 117.153V117.288L152.846 138.455C152.777 138.645 152.736 138.851 152.725 139.062L152.715 139.107L152.721 139.108C152.72 139.133 152.715 139.155 152.715 139.18C152.715 140.092 153.266 140.83 153.945 140.83H157.068V154.822C157.068 155.766 157.347 156.672 157.844 157.339C158.341 158.007 159.015 158.382 159.718 158.382C160.421 158.382 161.095 158.007 161.592 157.339C162.089 156.672 162.368 155.766 162.368 154.822V140.83H163.875V154.822C163.875 155.766 164.154 156.672 164.651 157.339C165.149 158.007 165.823 158.382 166.526 158.382C167.228 158.382 167.903 158.007 168.4 157.339C168.897 156.672 169.176 155.766 169.176 154.822V140.83H172.308C172.47 140.831 172.63 140.788 172.779 140.705C172.928 140.622 173.063 140.501 173.178 140.347C173.292 140.194 173.382 140.012 173.444 139.812C173.506 139.611 173.538 139.397 173.538 139.18C173.538 139.155 173.533 139.132 173.533 139.108L173.538 139.107L173.529 139.062C173.518 138.851 173.477 138.645 173.408 138.455L169.197 117.352L169.211 117.346C169.193 117.263 169.172 117.18 169.172 117.089C169.172 116.553 169.496 116.116 169.896 116.116C170.236 116.116 170.509 116.439 170.586 116.864L170.614 116.855L173.248 130.054L173.263 130.048C173.457 130.716 173.819 131.272 174.286 131.619C174.752 131.966 175.295 132.084 175.82 131.95C176.344 131.817 176.817 131.441 177.157 130.888C177.497 130.335 177.682 129.64 177.681 128.923C177.681 128.769 177.663 128.62 177.647 128.471L177.683 128.461Z" fill="url(#paint3_linear_22_366)"/>
<defs>
<linearGradient id="paint0_linear_22_366" x1="125.323" y1="85.7687" x2="125.323" y2="100.164" gradientUnits="userSpaceOnUse">
<stop stop-color="#42A5F5"/>
<stop offset="1" stop-color="#F06292"/>
</linearGradient>
<linearGradient id="paint1_linear_22_366" x1="125.741" y1="107.566" x2="125.741" y2="157.983" gradientUnits="userSpaceOnUse">
<stop stop-color="#42A5F5"/>
<stop offset="1" stop-color="#F06292"/>
</linearGradient>
<linearGradient id="paint2_linear_22_366" x1="162.629" y1="85.7679" x2="162.629" y2="100.247" gradientUnits="userSpaceOnUse">
<stop stop-color="#F06292"/>
<stop offset="1" stop-color="#42A5F5"/>
</linearGradient>
<linearGradient id="paint3_linear_22_366" x1="163.126" y1="107.649" x2="163.126" y2="158.382" gradientUnits="userSpaceOnUse">
<stop stop-color="#F06292"/>
<stop offset="1" stop-color="#42A5F5"/>
</linearGradient>
</defs>
</svg>
