<svg width="951" height="902" viewBox="0 0 951 902" fill="none" xmlns="http://www.w3.org/2000/svg">
<g clip-path="url(#clip0_22_366)">
<path d="M200.446 305.23C236.032 305.23 264.88 272.141 264.88 231.324C264.88 190.507 236.032 157.419 200.446 157.419C164.86 157.419 136.011 190.507 136.011 231.324C136.011 272.141 164.86 305.23 200.446 305.23Z" fill="url(#paint0_linear_22_366)"/>
<path d="M322.453 381.586V381.229H91.6038V381.47C83.5962 381.472 75.914 385.105 70.232 391.577C64.5501 398.049 61.3292 406.835 61.2717 416.02H61.2483V625.434H61.5521C61.5521 629.513 62.2526 633.553 63.6137 637.322C64.9748 641.091 66.9698 644.515 69.4848 647.4C71.9998 650.285 74.9855 652.573 78.2715 654.134C81.5574 655.695 85.0793 656.499 88.6361 656.499C92.1928 656.499 95.7147 655.695 99.0007 654.134C102.287 652.573 105.272 650.285 107.787 647.4C110.302 644.515 112.297 641.091 113.658 637.322C115.019 633.553 115.72 629.513 115.72 625.434H115.782V479.249H115.852C115.933 476.7 116.871 474.286 118.47 472.513C120.069 470.741 122.205 469.748 124.429 469.742C129.087 469.742 132.826 473.968 133.02 479.249H133.091V862.58C133.096 872.22 136.439 881.462 142.385 888.274C148.332 895.086 156.394 898.909 164.798 898.903C173.202 898.897 181.259 895.063 187.198 888.242C193.137 881.422 196.471 872.175 196.466 862.536V669.516H196.699C196.664 668.169 196.865 666.828 197.291 665.572C197.716 664.316 198.357 663.17 199.175 662.203C199.993 661.236 200.972 660.468 202.054 659.943C203.136 659.418 204.299 659.147 205.474 659.147C206.649 659.147 207.812 659.418 208.894 659.943C209.976 660.468 210.955 661.236 211.773 662.203C212.592 663.17 213.232 664.316 213.658 665.572C214.083 666.828 214.284 668.169 214.249 669.516H214.475V862.536C214.699 872.005 218.136 881.001 224.055 887.608C229.974 894.215 237.907 897.912 246.166 897.912C254.426 897.912 262.359 894.215 268.277 887.608C274.196 881.001 277.634 872.005 277.858 862.536V479.249C277.858 476.616 278.77 474.091 280.393 472.23C282.015 470.368 284.217 469.322 286.512 469.322C288.807 469.322 291.008 470.368 292.631 472.23C294.254 474.091 295.166 476.616 295.166 479.249V625.443H295.462C295.462 633.684 298.316 641.588 303.397 647.415C308.478 653.243 315.369 656.517 322.554 656.517C329.739 656.517 336.63 653.243 341.711 647.415C346.791 641.588 349.646 633.684 349.646 625.443H349.7V416.029C349.716 398.026 337.743 383.382 322.453 381.586Z" fill="url(#paint1_linear_22_366)"/>
<path d="M648.997 306.079C684.79 306.079 713.805 272.798 713.805 231.744C713.805 190.691 684.79 157.41 648.997 157.41C613.204 157.41 584.189 190.691 584.189 231.744C584.189 272.798 613.204 306.079 648.997 306.079Z" fill="url(#paint2_linear_22_366)"/>
<path d="M830 595.772L786.769 410.722L786.667 410.293L785.904 407.032L785.795 407.068C781.853 392.96 770.465 382.685 756.857 382.685L756.545 382.721V382.078H553.085V382.685C539.476 382.685 528.088 392.969 524.147 407.068L524.038 407.032L523.274 410.284L523.173 410.731L479.941 595.772L480.346 595.897C480.152 597.425 479.941 598.952 479.941 600.543C479.941 608.921 482.843 616.957 488.009 622.882C493.174 628.806 500.18 632.135 507.485 632.135C513.01 632.127 518.405 630.21 522.967 626.634C527.528 623.057 531.045 617.988 533.058 612.086L533.253 612.149L564.963 476.408V476.917H565.213C566.077 472.45 569.388 469.037 573.547 469.037C577.707 469.037 581.018 472.45 581.882 476.917H582.139V478.382C582.155 478.605 582.256 478.802 582.256 479.025C582.256 479.249 582.155 479.445 582.139 479.669V481.054L531.367 698.393C530.539 700.345 530.044 702.462 529.911 704.629L529.802 705.085L529.864 705.102C529.856 705.353 529.802 705.585 529.802 705.835C529.802 715.198 536.423 722.784 544.586 722.784H582.131V866.449C582.131 876.143 585.489 885.44 591.465 892.295C597.441 899.149 605.547 903 613.998 903C622.45 903 630.555 899.149 636.531 892.295C642.508 885.44 645.865 876.143 645.865 866.449V722.784H663.983V866.449C663.983 876.143 667.341 885.44 673.317 892.295C679.293 899.149 687.398 903 695.85 903C704.301 903 712.407 899.149 718.383 892.295C724.359 885.44 727.717 876.143 727.717 866.449V722.784H765.379C767.32 722.785 769.242 722.347 771.036 721.496C772.83 720.645 774.459 719.397 775.832 717.823C777.205 716.249 778.294 714.38 779.038 712.323C779.781 710.266 780.163 708.061 780.163 705.835C780.163 705.585 780.109 705.344 780.101 705.102L780.163 705.085L780.054 704.629C779.921 702.462 779.426 700.345 778.597 698.393L727.974 481.706L728.137 481.652C727.927 480.794 727.67 479.946 727.67 479.008C727.67 473.504 731.565 469.019 736.379 469.019C740.468 469.019 743.747 472.334 744.674 476.702L745.009 476.604L776.673 612.131L776.86 612.068C779.191 618.927 783.54 624.635 789.154 628.202C794.768 631.77 801.293 632.973 807.599 631.602C813.905 630.232 819.594 626.375 823.681 620.699C827.768 615.023 829.995 607.886 829.977 600.525C829.977 598.934 829.766 597.407 829.572 595.879L830 595.772Z" fill="url(#paint3_linear_22_366)"/>
</g>
<defs>
<linearGradient id="paint0_linear_22_366" x1="200.446" y1="157.419" x2="200.446" y2="305.23" gradientUnits="userSpaceOnUse">
<stop stop-color="#42A5F5"/>
<stop offset="1" stop-color="#F06292"/>
</linearGradient>
<linearGradient id="paint1_linear_22_366" x1="205.474" y1="381.229" x2="205.474" y2="898.903" gradientUnits="userSpaceOnUse">
<stop stop-color="#42A5F5"/>
<stop offset="1" stop-color="#F06292"/>
</linearGradient>
<linearGradient id="paint2_linear_22_366" x1="648.997" y1="157.41" x2="648.997" y2="306.079" gradientUnits="userSpaceOnUse">
<stop stop-color="#F06292"/>
<stop offset="1" stop-color="#42A5F5"/>
</linearGradient>
<linearGradient id="paint3_linear_22_366" x1="654.971" y1="382.078" x2="654.971" y2="903" gradientUnits="userSpaceOnUse">
<stop stop-color="#F06292"/>
<stop offset="1" stop-color="#42A5F5"/>
</linearGradient>
<clipPath id="clip0_22_366">
<rect width="951" height="902" fill="white"/>
</clipPath>
</defs>
</svg>
